<?xml version="1.0" standalone="no"?>
<!DOCTYPE svg PUBLIC "-//W3C//DTD SVG 20010904//EN"
 "http://www.w3.org/TR/2001/REC-SVG-20010904/DTD/svg10.dtd">
<svg version="1.0" xmlns="http://www.w3.org/2000/svg"
 width="256.000000pt" height="256.000000pt" viewBox="0 0 256.000000 256.000000"
 preserveAspectRatio="xMidYMid meet">
<metadata>
Created by potrace 1.11, written by Peter Selinger 2001-2013
</metadata>
<g transform="translate(0.000000,256.000000) scale(0.100000,-0.100000)"
fill="#000000" stroke="none">
<path d="M1412 2217 c-46 -14 -109 -88 -117 -138 -5 -29 -12 -39 -26 -40 -10
-1 -22 -2 -26 -3 -5 -1 -22 -5 -39 -10 -44 -10 -99 -69 -113 -119 -17 -60 -19
-81 -11 -92 5 -5 10 -21 12 -35 1 -14 11 -33 21 -42 11 -10 16 -22 11 -29 -4
-8 -3 -9 4 -5 15 9 52 -15 53 -34 0 -9 2 -11 5 -3 4 8 13 9 27 4 12 -4 37 -7
55 -6 17 0 32 -4 32 -9 0 -5 6 -2 13 9 10 12 16 14 21 7 4 -7 15 -12 24 -11
14 0 14 2 -2 8 -17 7 -14 11 25 34 24 15 40 27 35 27 -5 0 -2 8 7 18 10 10 14
22 10 25 -3 4 -1 7 5 7 6 0 9 9 7 20 -3 13 2 20 13 21 10 0 12 3 5 6 -23 9
-13 25 12 21 14 -3 25 -1 25 4 0 5 4 6 10 3 5 -3 19 -1 30 5 19 10 25 4 21
-22 0 -5 4 -8 10 -8 6 0 8 -7 5 -16 -3 -8 -2 -13 3 -10 5 3 25 -10 44 -28 22
-20 38 -29 41 -22 2 6 5 3 5 -6 1 -9 5 -20 11 -23 5 -3 7 0 4 8 -4 11 4 14 34
12 45 -2 65 -12 56 -27 -4 -7 -2 -8 5 -4 9 6 9 11 -1 24 -11 13 -10 15 10 10
14 -4 20 -2 15 5 -4 6 0 8 10 4 12 -4 17 -1 17 10 0 9 3 14 6 10 7 -7 54 41
54 55 0 5 4 7 9 4 4 -3 8 5 7 17 -1 12 4 36 11 53 7 17 9 35 5 39 -4 3 -7 10
-8 13 -6 53 -40 100 -98 137 -29 19 -84 26 -126 16 -33 -7 -37 -6 -58 28 -46
73 -133 103 -220 78z m81 -101 c9 1 17 -2 17 -7 0 -6 4 -8 9 -5 5 3 15 -2 22
-11 8 -9 9 -14 3 -10 -6 3 -11 0 -11 -7 0 -8 6 -12 14 -9 16 6 17 -9 1 -26
-10 -11 -10 -13 0 -7 7 4 12 1 12 -8 0 -24 -48 -66 -75 -66 -28 0 -74 19 -76
32 -2 12 -6 28 -9 31 -7 9 -6 37 1 37 6 0 8 4 5 9 -3 4 6 19 20 32 23 21 25
22 19 4 -4 -15 -2 -14 6 3 7 12 15 19 18 14 3 -5 14 -8 24 -6z m273 -118 c74
-26 49 -148 -31 -148 -44 0 -74 27 -81 72 -5 30 -2 41 19 62 29 29 46 31 93
14z m-516 -80 c0 18 30 15 53 -5 15 -13 19 -14 13 -3 -4 8 -1 6 8 -4 8 -10 13
-23 10 -27 -3 -5 -1 -9 5 -9 14 0 2 -61 -16 -78 -7 -7 -29 -16 -48 -19 -30 -5
-41 -1 -64 21 -22 21 -27 34 -25 59 3 18 9 34 14 35 6 2 10 10 10 18 0 9 5 12
10 9 6 -3 10 0 10 7 0 9 3 9 10 -2 6 -10 10 -11 10 -2z"/>
<path d="M1680 1980 c-9 -6 -10 -10 -3 -10 6 0 15 5 18 10 8 12 4 12 -15 0z"/>
<path d="M956 1688 c-30 -18 -47 -40 -77 -102 -22 -43 -39 -84 -39 -92 0 -8
-4 -14 -9 -14 -5 0 -12 -10 -16 -22 -4 -13 -8 -26 -10 -30 -1 -5 -3 -12 -4
-18 0 -5 -4 -9 -8 -8 -18 6 -142 -48 -194 -83 -50 -34 -73 -56 -134 -130 -50
-60 -103 -219 -101 -300 1 -21 -3 -39 -9 -39 -7 0 -7 -3 0 -8 12 -8 13 -16 17
-71 2 -23 7 -41 12 -41 4 0 6 -9 3 -20 -3 -11 -1 -20 3 -20 5 0 16 -20 26 -45
9 -25 20 -45 25 -45 4 0 13 -16 20 -35 7 -19 19 -35 27 -35 9 0 12 -6 8 -17
-4 -10 -4 -14 -1 -11 4 4 17 -2 29 -13 11 -10 35 -31 51 -45 17 -14 24 -22 16
-18 -9 4 -12 3 -7 -4 3 -6 16 -9 27 -7 15 3 19 0 15 -10 -3 -9 0 -12 10 -8 7
3 14 -1 14 -8 0 -7 3 -10 6 -6 4 3 20 -1 36 -9 29 -15 60 -25 86 -26 6 -1 12
-6 12 -12 0 -6 5 -4 10 4 8 12 10 12 10 1 0 -8 3 -11 7 -8 3 4 12 -1 20 -11
12 -16 13 -15 6 3 -6 18 -5 18 10 6 9 -7 17 -9 17 -3 0 13 42 3 52 -12 5 -7 8
-5 8 5 0 11 9 15 33 14 17 -1 37 1 42 5 6 4 24 7 42 6 17 0 29 2 27 5 -6 11
22 18 48 12 18 -4 20 -3 8 6 -13 9 -13 11 3 11 9 0 17 5 17 11 0 6 9 9 20 6
11 -3 25 2 32 12 12 14 11 15 -7 1 -17 -12 -18 -12 -7 0 7 8 18 15 24 15 6 0
17 9 24 21 12 18 12 23 -5 40 -29 32 -70 101 -64 108 4 3 2 6 -3 6 -6 0 -16
16 -23 35 l-13 36 -49 -37 c-27 -19 -49 -33 -49 -29 0 3 -10 1 -21 -6 -19 -10
-83 -21 -114 -20 -29 0 -84 15 -120 32 -37 18 -128 98 -126 113 0 3 -7 23 -16
43 -18 43 -27 159 -13 168 5 3 7 12 3 20 -3 8 1 15 8 15 7 0 9 3 6 6 -16 16
73 131 92 120 7 -4 9 -1 5 7 -3 8 0 18 7 23 8 5 10 3 5 -7 -5 -8 -2 -8 6 2 7
9 19 14 26 12 6 -3 12 0 12 5 0 8 31 19 75 27 6 0 16 -4 24 -9 11 -8 13 -8 8
0 -4 7 5 11 23 12 17 0 30 -4 30 -10 0 -6 3 -8 6 -5 4 3 16 2 27 -4 14 -8 18
-8 13 0 -4 6 -2 11 3 11 6 0 11 -8 11 -17 0 -15 2 -16 10 -3 6 10 10 11 10 3
0 -7 7 -13 15 -13 7 0 19 -8 24 -17 6 -10 11 -14 11 -9 0 4 12 1 26 -9 15 -9
23 -12 20 -6 -4 6 -2 11 3 11 6 0 10 3 9 8 -3 15 25 61 35 55 6 -3 7 -1 4 5
-10 15 3 43 16 35 6 -3 7 -1 3 5 -4 6 2 20 13 31 11 11 17 22 14 25 -4 3 1 6
10 6 10 0 16 6 15 13 -2 6 3 11 10 9 6 -1 12 4 12 11 0 7 10 24 22 37 13 13
21 33 20 43 -3 13 0 17 9 12 9 -6 9 -4 3 6 -13 19 -12 72 1 81 6 5 6 8 -2 8
-7 0 -13 11 -13 24 0 13 6 27 13 29 10 4 10 6 0 6 -7 1 -13 10 -13 22 0 14
-10 24 -30 32 -16 6 -30 15 -30 19 0 4 -6 8 -13 8 -19 0 -67 24 -67 33 0 5 -3
6 -8 4 -4 -3 -25 4 -47 14 -64 31 -114 34 -159 7z m188 -169 c-4 -7 0 -9 14
-5 12 4 23 2 28 -5 5 -8 3 -9 -6 -4 -8 5 -11 4 -6 -3 4 -6 13 -9 21 -5 8 3 15
1 16 -3 0 -5 3 -22 6 -39 4 -25 -1 -35 -28 -57 -31 -26 -32 -26 -65 -10 -19 8
-35 20 -35 26 -1 6 -3 22 -4 36 -4 27 9 48 40 67 26 15 28 15 19 2z"/>
<path d="M1513 1689 c-75 -15 -103 -60 -103 -163 0 -36 -5 -68 -12 -75 -10
-11 -10 -13 0 -7 8 5 12 -1 12 -18 0 -14 -6 -26 -12 -26 -9 0 -10 -3 -2 -8 19
-12 14 -72 -7 -93 -10 -10 -22 -19 -26 -19 -5 0 -24 -22 -43 -47 -19 -26 -42
-53 -50 -62 -8 -8 -14 -16 -12 -18 1 -2 -4 -16 -12 -31 -25 -50 -45 -120 -52
-184 -3 -35 -8 -66 -10 -70 -2 -3 2 -9 8 -11 9 -4 9 -6 2 -6 -8 -1 -10 -12 -5
-33 4 -18 7 -43 6 -55 -1 -12 2 -20 7 -17 7 4 13 -26 9 -48 0 -5 3 -8 7 -8 5
0 15 -18 22 -40 7 -22 17 -40 23 -40 5 0 6 -7 3 -16 -3 -8 -2 -12 4 -9 5 3 14
-5 21 -17 7 -13 19 -28 28 -34 13 -10 14 -14 1 -30 -13 -17 -13 -18 0 -7 12 9
21 6 43 -13 16 -13 26 -28 22 -33 -3 -5 0 -13 6 -17 8 -4 9 -3 5 4 -4 7 -2 12
3 12 6 0 11 -4 11 -10 0 -5 9 -10 20 -10 22 0 27 -15 8 -24 -7 -3 -1 -3 15 0
22 5 27 3 27 -12 0 -16 2 -17 10 -4 9 13 14 8 12 -11 -1 -4 8 -5 18 -2 11 3
20 1 20 -5 0 -5 6 -10 13 -9 30 1 48 -4 43 -11 -3 -5 9 -6 26 -4 17 3 28 1 25
-5 -3 -5 3 -9 13 -9 10 0 16 4 14 8 -10 15 9 8 23 -9 8 -10 11 -12 8 -5 -5 9
-1 13 11 11 11 -2 25 0 33 5 10 6 12 5 7 -2 -10 -16 7 -15 23 0 11 11 12 10 6
-1 -6 -10 -4 -12 6 -5 8 4 27 9 42 10 16 2 35 8 43 14 11 10 14 9 15 -6 0 -18
1 -18 8 -1 4 10 10 18 14 18 4 -1 20 5 36 13 16 9 31 12 35 9 3 -4 6 -1 6 5 0
6 10 16 21 23 12 6 19 7 15 1 -4 -6 2 -8 15 -5 14 4 17 8 8 13 -8 6 -6 11 8
19 11 5 24 7 28 3 3 -4 5 -2 3 4 -4 13 72 95 83 89 3 -3 6 3 5 13 -1 12 5 16
19 14 17 -2 17 -1 5 8 -10 7 -12 12 -4 17 6 5 22 36 36 70 14 35 27 61 29 59
2 -2 5 15 7 37 5 71 7 82 17 89 6 5 5 8 -4 8 -10 0 -11 3 -2 14 8 10 9 16 1
21 -7 4 -7 13 1 27 8 15 8 19 0 14 -7 -5 -11 4 -11 26 -1 18 -10 58 -21 88
-11 30 -21 61 -21 68 -1 6 -4 12 -7 12 -3 0 -12 14 -20 31 -7 17 -41 60 -74
96 l-60 64 -2 137 c-2 158 -10 184 -69 215 -38 19 -59 20 -248 21 -114 1 -220
-2 -235 -5z m273 -162 c14 -15 20 -27 15 -27 -5 0 -8 -9 -6 -21 5 -24 -21 -55
-50 -61 -29 -6 -74 19 -79 45 -8 37 -4 58 10 53 8 -3 16 0 20 6 4 7 3 8 -4 4
-7 -4 -12 -2 -12 4 0 13 38 29 63 26 10 -1 29 -14 43 -29z m3 -356 c8 0 11 -8
7 -18 -5 -16 -4 -17 6 -2 10 14 16 15 37 6 14 -7 28 -14 31 -17 3 -3 17 -11
33 -19 20 -11 24 -17 15 -23 -9 -5 -7 -8 7 -8 17 0 51 -34 43 -43 -2 -1 7 -14
20 -27 13 -14 21 -33 18 -42 -2 -11 0 -15 6 -12 7 5 9 -3 6 -20 -3 -14 -2 -28
2 -31 14 -9 -3 -130 -22 -152 -6 -7 -7 -13 -4 -13 23 0 -95 -113 -142 -137
-46 -23 -195 -33 -207 -13 -3 5 -10 8 -13 6 -15 -9 -117 70 -145 111 -32 48
-61 133 -45 133 7 0 6 5 -1 14 -13 16 -11 37 4 48 6 5 5 8 -2 8 -7 0 -10 7 -7
15 4 8 11 12 17 8 6 -3 7 -1 3 6 -10 16 2 63 14 56 6 -3 7 1 4 9 -3 9 -1 16 6
16 6 0 8 5 5 10 -3 6 -1 10 5 10 6 0 15 12 21 26 5 15 12 24 16 20 3 -3 13 4
21 15 12 17 16 18 23 8 7 -11 9 -10 9 3 0 17 34 34 59 29 8 -1 10 2 5 11 -5 9
-2 8 11 -2 15 -12 17 -12 10 -1 -6 11 -4 13 8 8 10 -3 17 -3 17 2 0 7 40 8 99
2z"/>
<path d="M1735 1160 c3 -5 8 -10 11 -10 2 0 4 5 4 10 0 6 -5 10 -11 10 -5 0
-7 -4 -4 -10z"/>
<path d="M433 575 c0 -8 4 -12 9 -9 5 3 6 10 3 15 -9 13 -12 11 -12 -6z"/>
<path d="M1270 560 c0 -5 5 -10 11 -10 5 0 7 5 4 10 -3 6 -8 10 -11 10 -2 0
-4 -4 -4 -10z"/>
<path d="M1555 351 c-3 -5 -2 -12 3 -15 5 -3 9 1 9 9 0 17 -3 19 -12 6z"/>
</g>
</svg>
